PathFileType	4	(X/Y/Z)	path1_22_0-584.trc
DataRate	CameraRate	NumFrames	NumMarkers	Units	OrigDataRate	OrigDataStartFrame	OrigNumFrames
30	30	7	22	m	30	0	584
Frame#	Time	Hip			RHip			RKnee			RAnkle			RBigToe			RSmallToe			RHeel			LHip			LKnee			LAnkle			LBigToe			LSmallToe			LHeel			Neck			Head			Nose			RShoulder			RElbow			RWrist			LShoulder			LElbow			LWrist		
		X1	Y1	Z1	X2	Y2	Z2	X3	Y3	Z3	X4	Y4	Z4	X5	Y5	Z5	X6	Y6	Z6	X7	Y7	Z7	X8	Y8	Z8	X9	Y9	Z9	X10	Y10	Z10	X11	Y11	Z11	X12	Y12	Z12	X13	Y13	Z13	X14	Y14	Z14	X15	Y15	Z15	X16	Y16	Z16	X17	Y17	Z17	X18	Y18	Z18	X19	Y19	Z19	X20	Y20	Z20	X21	Y21	Z21	X22	Y22	Z22
1	0.0333333333333333	2.5327155480613874	0.8285241072439387	0.591165358876628	2.532124345928523	0.8063160809450362	0.5036609036616603	2.485822806306517	0.4577383197166601	0.5028519175593694	2.5413478041332245	0.08886934726320814	0.5319115938235058	2.363297091610959	0.01889549025314316	0.5075117606023334	2.399192996840137	0.018281474847275263	0.45576631865419354	2.587536256884698	0.04251392535381796	0.5286796271404389	2.5142989292183966	0.8065220828043548	0.6844296518815646	2.5089675474216513	0.43511252958564106	0.6481113787809878	2.5529958691439774	0.08705345474555326	0.634815706110884	2.3702066908046935	0.011910501424148437	0.6527272830009859	2.4281693904392077	0.025949430258950953	0.7394930982906612	2.60495732631479	0.039616105157186235	0.6398196553108974	2.4931399512627115	1.4779954844092569	0.5972392798538828	2.4518991943307107	1.7352763776001736	0.5697739541320672	2.359502225788888	1.6032832038887657	0.5703934796568029	2.538415960349994	1.371854502958665	0.423631892438743	2.5350613842324887	1.0748992694563775	0.3713885054268705	2.5043644306307447	0.8293032342034112	0.37849780126212396	2.4896170103781317	1.3474859552288174	0.7690328693178985	2.5212746982302536	1.0642520156044324	0.7921393536787609	2.510155033296681	0.8206688130694852	0.800010165599681
2	0.0666666666666666	2.529392291839091	0.8303130477303392	0.5904793944192571	2.529744798906285	0.8036069153008994	0.5074046263060441	2.4867275620979346	0.45979919520905294	0.5030140323956978	2.545599469900113	0.09410641527911817	0.5349922455288532	2.3614969417878515	0.024542374919552988	0.5157736376380165	2.3964476832307153	0.019838403179897404	0.4602412334307294	2.591081557084619	0.040256293624674915	0.5314640856694861	2.5143897126462167	0.8041792669064756	0.6788330957393183	2.510157561377098	0.4359047916073112	0.6450100016303337	2.5511178746258114	0.09171161486403138	0.6361845915288421	2.3752499417927937	0.014332722819345011	0.65396768804887	2.4200926980959303	0.021238545506383846	0.7231817561208889	2.601163171284386	0.039411116256756466	0.6438977411785994	2.4899800755047785	1.4742942918877988	0.5989706034258382	2.449158160835607	1.727896871944474	0.5659841268237679	2.3581030587218645	1.6045635102506652	0.5728789611989932	2.5384604232797843	1.3710770984313978	0.42630564160044515	2.5423806997216447	1.0737094252695136	0.3859344760009625	2.5041015175892816	0.833967572588247	0.3781674103836874	2.487763071678295	1.3478752128802658	0.7675211688334306	2.5226357227566547	1.0668316284639017	0.7918764826112669	2.512151190928018	0.8274462131165158	0.7983724127935252
3	0.1	2.5266802692272097	0.8316481726725475	0.5899544015406654	2.527706045108157	0.8013514001623515	0.5103851828466612	2.4873935125318005	0.46140531665154655	0.5031825042698471	2.5490283881944515	0.0981657807839681	0.537445946556953	2.3598938039332027	0.029067361038995203	0.5223536189590922	2.3940956854178217	0.021028255223650927	0.4637641823955325	2.5940233431491118	0.03812974099081206	0.5331862555270229	2.5143306200413122	0.8022481262308827	0.6742197866336926	2.5111335918760456	0.4365197432626197	0.6424661660079475	2.5498515024905988	0.09525721667335925	0.6372128755081502	2.3791660916030293	0.016240859571949307	0.6549597060709549	2.4128035823530367	0.018269333986707006	0.7102181391169545	2.5977546303549253	0.039361456801542134	0.6467840306140391	2.4877215679694342	1.4716929927758142	0.6006490834501015	2.447336401190574	1.7223269486768829	0.5623894542456156	2.3567660765577743	1.6055326125243161	0.5750315732324794	2.538398281483574	1.370427847028517	0.42843365316198423	2.5481194739985487	1.0726532999455236	0.3975495071195922	2.5038605539997802	0.8376985248142435	0.3779147168237788	2.486912149868817	1.348356976837017	0.7654783498633435	2.5236820121960415	1.068896234426019	0.7917258179800999	2.51381239124133	0.832822899395772	0.7970120310403379
4	0.1333333333333333	2.5248509875913805	0.8324120574960675	0.5896591103360255	2.526237349832428	0.7998843859046447	0.5123701871696253	2.487703032303136	0.46241509161044914	0.5034209642498106	2.5512189714217084	0.10064971968016777	0.5390124783974758	2.3586234527264405	0.03189009631783554	0.5267345756002043	2.3922715615923464	0.021733149695253594	0.4660057252056565	2.5960000663330978	0.0362849467718128	0.5336162309640294	2.5141060478263206	0.8010883941830003	0.6712044526124427	2.511766846767357	0.4369491568207149	0.6407855322452286	2.5492272145465233	0.09742319894169323	0.6378242237646246	2.381446557347086	0.017650739213576124	0.6558290120298057	2.406584126649955	0.01790791343730568	0.7021691044795351	2.5945078467860205	0.0396129902260446	0.6477316886923646	2.4864995150016544	1.470266851700157	0.602004587715389	2.4457594265701004	1.7186718905362854	0.5597626594708903	2.3556066592593035	1.606050421545134	0.5765326123436472	2.53820584885467	1.3699859516134687	0.42978710337222026	2.551636878153609	1.0717783257586706	0.4049262088271639	2.503663689377104	0.8399965815896032	0.3777457338719055	2.4876819146633786	1.3489735503754452	0.7625481994245076	2.5242254390066545	1.070165910173716	0.7916693909855811	2.5149144028011414	0.8361803162992446	0.7960409877505075
5	0.1666666666666666	2.5238269670334104	0.8327530021523185	0.5895608975438954	2.5254208637051665	0.7992823634715338	0.5135748708145912	2.487645439257489	0.4629734548454715	0.5037644184644153	2.5522655909703937	0.10182668709861017	0.5398279910352135	2.3577543542759627	0.03317184022063211	0.5293438294550271	2.3910130399857366	0.02202784473818648	0.46731751139666783	2.5970990828176466	0.034886336538731855	0.5335541978751744	2.5137699083866236	0.8008273433610046	0.6698496044882667	2.5120450344566883	0.43733029805458706	0.6399697110579474	2.5490190693612296	0.09838602153265362	0.6380956726140142	2.3821928919271294	0.018925275128773265	0.6567892518806451	2.4014362373235203	0.01991143163191532	0.6986114459853507	2.5913477734009223	0.040100953866688424	0.647016710842819	2.4859049538768176	1.4693999549018848	0.6027929676013469	2.443195223490654	1.7159484444827087	0.5589806525156908	2.354710689074723	1.606191380247678	0.5773028761121402	2.5379139700607256	1.3697808171320625	0.43047670405719746	2.5532664900616084	1.0710276108399068	0.4085034985860165	2.503538041372442	0.8408981605613736	0.3775934537649504	2.4899175342659046	1.349664812501444	0.7588824767557367	2.524260099487754	1.0706382312668328	0.7916245746955752	2.515404196209529	0.8377144904389858	0.7954145639717585
6	0.2	2.5233746328091837	0.8328259491590723	0.589569760626961	2.5251834448547514	0.7993113593171778	0.5142758039115624	2.487282610100178	0.463260630529726	0.5041312803831527	2.5525734411924237	0.1021207464170173	0.5402135123986656	2.3572629466551023	0.033489088145781984	0.5307520863378511	2.39030254584452	0.022043605334324565	0.4681833210853044	2.5977554433031864	0.03403152832664313	0.5340609700871131	2.5133803000351786	0.8012157437594802	0.6697370516837433	2.5120692777732225	0.4377110755368312	0.6397979068913066	2.5490116732953294	0.09846785931999816	0.638151098476014	2.3817274933424675	0.02022626321068221	0.6576991758453529	2.3973043238142613	0.023430235234803868	0.6980997515735106	2.588894239819216	0.04054651917151204	0.6457896286642342	2.485498313630624	1.4685571987119121	0.6030176504496673	2.439522276109406	1.7135121546749514	0.5602104959824494	2.3540726055081316	1.606130863457965	0.5775046830518135	2.537570512928634	1.3697774820974515	0.43078264810012273	2.553738619895976	1.0703401246230246	0.409549883378775	2.5034641921234044	0.8408101491407882	0.3773889464756531	2.492684440529276	1.350272305080345	0.7553059316295594	2.52392906884468	1.0705030351417881	0.7915666860705985	2.515377615751122	0.8380029214878956	0.7950479678946857
7	0.2333333333333333	2.5232019948726614	0.8327357719347706	0.5895824511311458	2.5252815963660478	0.7996000933225437	0.5146142334694589	2.486755200699023	0.46338702375656604	0.5044061055327033	2.552554740717545	0.1019035606539425	0.5404461980395716	2.3570328081392695	0.03332531248952889	0.5313509916144976	2.3899436099583946	0.021917462790872748	0.4687493885595507	2.5983185918245013	0.03368853778755587	0.5353900559508765	2.5130115833087445	0.8017754255160303	0.6702264280668542	2.5120047503938565	0.43798026893516706	0.6399641757455848	2.5489426311938783	0.09826264153528276	0.6381890647232206	2.3804487921662103	0.021368260011667483	0.6582522571387048	2.394114133061302	0.027466915277264532	0.6991250727324155	2.587919877149192	0.04069173639671123	0.6452012165264368	2.485010083720908	1.4675708885283307	0.6028538626593131	2.435911905099049	1.71152041536489	0.5625385417385605	2.3536266113402826	1.6059921048102994	0.5773034714396427	2.5372484722195368	1.3698573966009033	0.4309826593795586	2.55367338699057	1.0697657065418718	0.409305580233496	2.503355109654777	0.840281731126083	0.37712473655614315	2.494819572143366	1.3506301447522884	0.752889090259803	2.5234234031812006	1.070038679117108	0.7915389575148741	2.5150087577221836	0.8376592625203464	0.7948964644326522
